Coordinates
version=1
nRows=14
nColumns=40
inDegrees=yes

Units are S.I. units (second, meters, Newtons, ...)
Angles are in degrees.

endheader
time	pelvis_tilt	pelvis_list	pelvis_rotation	pelvis_tx	pelvis_ty	pelvis_tz	hip_flexion_r	hip_adduction_r	hip_rotation_r	knee_angle_r	knee_angle_r_beta	ankle_angle_r	subtalar_angle_r	mtp_angle_r	hip_flexion_l	hip_adduction_l	hip_rotation_l	knee_angle_l	knee_angle_l_beta	ankle_angle_l	subtalar_angle_l	mtp_angle_l	lumbar_extension	lumbar_bending	lumbar_rotation	arm_flex_r	arm_add_r	arm_rot_r	elbow_flex_r	pro_sup_r	wrist_flex_r	wrist_dev_r	arm_flex_l	arm_add_l	arm_rot_l	elbow_flex_l	pro_sup_l	wrist_flex_l	wrist_dev_l
     46.31000000	     -2.04888194	     -5.49365910	      2.37046201	      1.08663173	      0.93164961	      0.48163618	      9.28893146	      3.14855456	    -13.89173676	     15.85444579	     15.85444579	     10.15126419	     -0.21850342	     -5.66343719	     26.60350984	    -14.37341379	      3.08302370	     67.56382590	     67.56382590	      1.90707461	    -17.29037361	      7.27328023	     -9.04466362	      5.74961786	      1.69778524	     16.03740673	    -25.87985521	     -5.11795114	     98.79840940	     44.62623818	      0.00000000	      0.00000000	     -3.83729039	     -8.96620958	     -0.13369326	     26.93730417	     44.75107639	      0.00000000	      0.00000000
     46.32350000	     -2.15513877	     -5.39353188	      2.82362007	      1.08526813	      0.93204629	      0.48252368	      8.79109169	      3.20228258	    -14.01558898	     15.28268743	     15.28268743	     10.26634721	     -0.38114832	     -5.58909681	     28.01681100	    -14.19639592	      3.05430000	     66.74108484	     66.74108484	      2.47669136	    -18.01329509	      7.54403826	     -9.05297353	      5.64376166	      1.69998370	     17.65769125	    -25.64989959	     -5.71341024	    100.57401726	     44.60243756	      0.00000000	      0.00000000	     -4.60175003	     -8.61968506	     -0.15262172	     26.69348622	     44.75750615	      0.00000000	      0.00000000
     46.33700000	     -2.22757883	     -5.28721525	      3.26539393	      1.08398734	      0.93247707	      0.48341665	      8.22357084	      3.25896996	    -14.18068087	     14.64973521	     14.64973521	     10.31558466	     -0.49513541	     -5.55238180	     29.29002895	    -14.06596242	      2.86787003	     65.72682358	     65.72682358	      3.33630642	    -18.41671369	      8.42579115	     -9.12649765	      5.50914227	      1.77812779	     19.12414747	    -25.40331853	     -6.36971759	    102.77126469	     44.57052318	      0.00000000	      0.00000000	     -5.46661416	     -8.29076428	     -0.24463017	     26.69969430	     44.77983053	      0.00000000	      0.00000000
     46.35050000	     -2.34620434	     -5.15960238	      3.70019243	      1.08262679	      0.93274528	      0.48415280	      7.76046876	      3.26596231	    -14.37409149	     14.10363147	     14.10363147	     10.30316217	     -0.62332822	     -5.81805380	     30.58762241	    -13.81940401	      2.69165961	     64.61483033	     64.61483033	      5.00329735	    -18.61920615	     11.65430045	     -9.20064325	      5.34801443	      2.31471655	     20.09047490	    -25.52969684	     -7.61248813	    105.15997644	     44.57540192	      0.00000000	      0.00000000	     -6.20202755	     -8.00912548	     -0.54951485	     27.32513424	     44.89153660	      0.00000000	      0.00000000
     46.36400000	     -2.42334904	     -5.09043376	      4.14697884	      1.08128860	      0.93298207	      0.48482702	      7.27023427	      3.33387381	    -14.59802290	     13.58809065	     13.58809065	     10.41153568	     -0.67286984	     -5.75403879	     31.60701625	    -13.71897690	      2.32982362	     62.97190464	     62.97190464	      5.75024591	    -18.88410696	     12.20797376	     -9.25373390	      5.25148352	      2.38818460	     21.78663029	    -25.36312431	     -8.06201428	    106.50331668	     44.56153925	      0.00000000	      0.00000000	     -6.82491952	     -7.74622963	     -0.50815024	     27.07385521	     44.88855335	      0.00000000	      0.00000000
     46.37750000	     -2.49805954	     -5.02453739	      4.59146640	      1.07989853	      0.93313094	      0.48532614	      6.77743761	      3.39589063	    -14.84823945	     13.05896845	     13.05896845	     10.50303366	     -0.71195993	     -5.70749724	     32.49012623	    -13.58952084	      1.88791365	     61.00371297	     61.00371297	      6.65405364	    -19.03411064	     13.12383119	     -9.34704855	      5.17822725	      2.46220590	     23.39526150	    -25.15080221	     -8.53455964	    107.93762704	     44.54594717	      0.00000000	      0.00000000	     -7.40063259	     -7.50993177	     -0.49995366	     26.96949170	     44.89193928	      0.00000000	      0.00000000
     46.39100000	     -2.59381624	     -4.97499683	      5.03903699	      1.07847667	      0.93314670	      0.48558293	      6.34557879	      3.44790865	    -15.12316919	     12.58355701	     12.58355701	     10.56856149	     -0.70186691	     -5.71247176	     33.22484363	    -13.37721718	      1.46435156	     58.65459521	     58.65459521	      7.70580817	    -19.11175064	     14.32516899	     -9.45428047	      5.15758568	      2.56615566	     24.85823045	    -24.90500472	     -9.04825582	    109.29076346	     44.53558843	      0.00000000	      0.00000000	     -7.88948633	     -7.29693168	     -0.52342198	     26.98784386	     44.90524841	      0.00000000	      0.00000000
     46.40450000	     -2.79302515	     -4.93185027	      5.47720270	      1.07695062	      0.93289677	      0.48567398	      6.12563983	      3.46141316	    -15.40996545	     12.29184794	     12.29184794	     10.66729526	     -0.76833303	     -5.73520578	     33.89897601	    -13.10426491	      1.00758004	     55.90939844	     55.90939844	      8.46441426	    -19.13628525	     14.91890828	     -9.39326573	      5.10071988	      2.83146484	     26.20397015	    -24.98378941	     -9.44554665	    110.05076575	     44.53510646	      0.00000000	      0.00000000	     -8.17958556	     -7.11796991	     -0.52798738	     26.97525240	     44.90970308	      0.00000000	      0.00000000
     46.41800000	     -2.90940894	     -4.90664169	      5.93080506	      1.07543442	      0.93266354	      0.48548601	      5.76614351	      3.48376176	    -15.79926961	     11.91076394	     11.91076394	     10.79379037	     -0.63194101	     -5.85033458	     34.30168941	    -12.70616289	      0.71197770	     52.82377053	     52.82377053	      9.26711859	    -19.08678748	     15.72392723	     -9.50119016	      5.12607282	      2.89810651	     27.58842792	    -24.56224642	     -9.96017914	    111.12992163	     44.53375095	      0.00000000	      0.00000000	     -8.46885236	     -6.93404553	     -0.56715775	     27.01553680	     44.93098849	      0.00000000	      0.00000000
     46.43150000	     -3.15770453	     -4.89553713	      6.34518885	      1.07377876	      0.93212696	      0.48515358	      5.66433981	      3.48279616	    -16.08640823	     11.72378926	     11.72378926	     10.95264630	     -0.70971471	     -5.92579971	     34.66792363	    -12.21452886	      0.50081738	     49.41989323	     49.41989323	      9.75630708	    -18.97697532	     16.02371618	     -9.42621278	      5.13938484	      3.15888373	     28.79730410	    -24.64608215	    -10.25014797	    111.58949838	     44.53731543	      0.00000000	      0.00000000	     -8.52577337	     -6.77875496	     -0.56653230	     27.04034612	     44.93619955	      0.00000000	      0.00000000
     46.44500000	     -3.34281032	     -4.85615058	      6.74478672	      1.07222752	      0.93162525	      0.48459807	      5.48079033	      3.43530623	    -16.38694770	     11.54591664	     11.54591664	     11.12363065	     -0.69712067	     -6.03331294	     34.73096521	    -11.59521003	      0.45575923	     45.73419196	     45.73419196	     10.12599207	    -18.73407756	     16.17450990	     -9.42388492	      5.13578852	      3.33705768	     30.00779383	    -24.49461279	    -10.53039473	    112.06802729	     44.53997570	      0.00000000	      0.00000000	     -8.53192754	     -6.66265836	     -0.56671056	     27.05544645	     44.94305530	      0.00000000	      0.00000000
     46.45850000	     -3.43480995	     -4.86671210	      7.15976034	      1.07086495	      0.93112974	      0.48390006	      5.17185184	      3.39465281	    -17.15926536	     11.36385627	     11.36385627	     11.32845264	      0.02814251	     -6.41970461	     34.47354147	    -11.01458512	      0.51770544	     41.76704938	     41.76704938	      9.62575386	    -18.35882731	     14.51378007	     -9.51882681	      5.20547228	      3.16944656	     31.38189961	    -23.52984827	    -11.08473408	    112.22893660	     44.57519242	      0.00000000	      0.00000000	     -8.66972870	     -6.55887652	     -0.69079721	     27.06776537	     44.99799816	      0.00000000	      0.00000000
     46.47200000	     -3.68664931	     -5.10882491	      7.53182579	      1.06941902	      0.93015948	      0.48324639	      5.18397554	      3.62159948	    -17.44503514	     11.36534469	     11.36534469	     11.50427313	     -0.14719025	     -6.52519560	     34.50674246	    -10.64236766	      0.83527747	     38.14741334	     38.14741334	      9.86238988	    -17.31021804	     14.69416573	     -9.37437424	      5.50494650	      3.49635103	     32.19179641	    -23.63160522	    -11.14723011	    112.30868007	     44.57999987	      0.00000000	      0.00000000	     -8.48564707	     -6.45073772	     -0.69505888	     27.18987793	     45.00531548	      0.00000000	      0.00000000
     46.48550000	     -3.72316230	     -4.92198107	      7.78014462	      1.06845437	      0.92975626	      0.48238289	      4.79884930	      3.41460240	    -17.59392177	     11.24455866	     11.24455866	     11.79976350	     -0.04344198	     -6.66640987	     33.82237486	     -9.96523701	      0.82157312	     34.26482113	     34.26482113	      9.72815956	    -16.08705748	     14.34547115	     -9.50334694	      5.31479394	      3.68527615	     33.10703630	    -23.31112155	    -11.24947510	    112.11468397	     44.59748301	      0.00000000	      0.00000000	     -8.33057748	     -6.49143652	     -0.72866686	     27.27003419	     45.02362852	      0.00000000	      0.00000000
